<svg width="20" height="16" viewBox="0 0 20 16" fill="none" xmlns="http://www.w3.org/2000/svg">    <path d="M1 2H2V16H1V2Z" fill="white"/>    <path d="M18 2H19V16H18V2Z" fill="white"/>    <path d="M3 1.5C3 2.32843 2.32843 3 1.5 3C0.671573 3 0 2.32843 0 1.5C0 0.671573 0.671573 0 1.5 0C2.32843 0 3 0.671573 3 1.5Z"          fill="white"/>    <path d="M20 1.5C20 2.32843 19.3284 3 18.5 3C17.6716 3 17 2.32843 17 1.5C17 0.671573 17.6716 0 18.5 0C19.3284 0 20 0.671573 20 1.5Z"          fill="white"/>    <path d="M2 8H18V15.1429H2V8Z" fill="white"/>    <path d="M2 4H18V5H2V4Z" fill="white"/>    <path d="M3 5H4V8H3V5Z" fill="white"/>    <path d="M5 5H6V8H5V5Z" fill="white"/>    <path d="M7 5H8V8H7V5Z" fill="white"/>    <path d="M12 5H13V8H12V5Z" fill="white"/>    <path d="M14 5H15V8H14V5Z" fill="white"/>    <path d="M16 5H17V8H16V5Z" fill="white"/>    <path d="M11 6.5C11 7.32843 10.5523 8 10 8C9.44771 8 9 7.32843 9 6.5C9 5.67157 9.44771 5 10 5C10.5523 5 11 5.67157 11 6.5Z"          fill="white"/>    <path d="M3 9.42857H9V12.2857H3V9.42857Z" fill="#93C3C9"/>    <path d="M11 9.42857H17V12.2857H11V9.42857Z" fill="#93C3C9"/></svg>